<mxfile host="app.diagrams.net" modified="2024-05-15T11:13:28.291Z" agent="Mozilla/5.0 (Windows NT 10.0; Win64; x64) AppleWebKit/537.36 (KHTML, like Gecko) Chrome/124.0.0.0 Safari/537.36" etag="ItZVJnoow8h0fuGHevov" version="24.4.0" type="device">
  <diagram name="Page-1" id="p7pvknPHk5eQiDpmjLoC">
    <mxGraphModel dx="1100" dy="585" grid="1" gridSize="10" guides="1" tooltips="1" connect="1" arrows="1" fold="1" page="1" pageScale="1" pageWidth="827" pageHeight="1169" math="0" shadow="0">
      <root>
        <mxCell id="0" />
        <mxCell id="1" parent="0" />
        <mxCell id="aCz41oA2iba9IzXfXmTm-1" value="Admin" style="rounded=0;whiteSpace=wrap;html=1;" parent="1" vertex="1">
          <mxGeometry x="20" y="160" width="120" height="40" as="geometry" />
        </mxCell>
        <mxCell id="aCz41oA2iba9IzXfXmTm-2" value="Student" style="rounded=0;whiteSpace=wrap;html=1;" parent="1" vertex="1">
          <mxGeometry x="20" y="545" width="120" height="40" as="geometry" />
        </mxCell>
        <mxCell id="aCz41oA2iba9IzXfXmTm-3" value="Authentication" style="ellipse;whiteSpace=wrap;html=1;" parent="1" vertex="1">
          <mxGeometry x="190" y="220" width="100" height="80" as="geometry" />
        </mxCell>
        <mxCell id="aCz41oA2iba9IzXfXmTm-9" value="" style="endArrow=classic;html=1;rounded=0;edgeStyle=orthogonalEdgeStyle;entryX=-0.008;entryY=0.412;entryDx=0;entryDy=0;entryPerimeter=0;exitX=0.583;exitY=1;exitDx=0;exitDy=0;exitPerimeter=0;" parent="1" edge="1">
          <mxGeometry relative="1" as="geometry">
            <mxPoint x="92.95999999999992" y="200" as="sourcePoint" />
            <mxPoint x="192.20000000000005" y="252.96000000000004" as="targetPoint" />
            <Array as="points">
              <mxPoint x="73" y="200" />
              <mxPoint x="73" y="253" />
            </Array>
          </mxGeometry>
        </mxCell>
        <mxCell id="aCz41oA2iba9IzXfXmTm-10" value="validate" style="edgeLabel;resizable=0;html=1;align=center;verticalAlign=middle;" parent="aCz41oA2iba9IzXfXmTm-9" connectable="0" vertex="1">
          <mxGeometry relative="1" as="geometry">
            <mxPoint x="17" as="offset" />
          </mxGeometry>
        </mxCell>
        <mxCell id="aCz41oA2iba9IzXfXmTm-15" value="images" style="shape=partialRectangle;whiteSpace=wrap;html=1;left=0;right=0;fillColor=none;" parent="1" vertex="1">
          <mxGeometry x="620" y="245" width="80" height="40" as="geometry" />
        </mxCell>
        <mxCell id="aCz41oA2iba9IzXfXmTm-17" value="Photo Gallery System" style="ellipse;whiteSpace=wrap;html=1;" parent="1" vertex="1">
          <mxGeometry x="400" y="225" width="100" height="80" as="geometry" />
        </mxCell>
        <mxCell id="aCz41oA2iba9IzXfXmTm-20" value="image creation&amp;nbsp;&lt;div&gt;data&lt;/div&gt;" style="endArrow=classic;html=1;rounded=0;edgeStyle=orthogonalEdgeStyle;entryX=0;entryY=0.5;entryDx=0;entryDy=0;exitX=1;exitY=0.5;exitDx=0;exitDy=0;" parent="1" edge="1">
          <mxGeometry relative="1" as="geometry">
            <mxPoint x="503" y="265" as="sourcePoint" />
            <mxPoint x="623" y="265" as="targetPoint" />
          </mxGeometry>
        </mxCell>
        <mxCell id="aCz41oA2iba9IzXfXmTm-22" value="Event System" style="ellipse;whiteSpace=wrap;html=1;" parent="1" vertex="1">
          <mxGeometry x="610" y="322" width="100" height="80" as="geometry" />
        </mxCell>
        <mxCell id="aCz41oA2iba9IzXfXmTm-23" value="event" style="shape=partialRectangle;whiteSpace=wrap;html=1;left=0;right=0;fillColor=none;" parent="1" vertex="1">
          <mxGeometry x="430" y="342" width="80" height="40" as="geometry" />
        </mxCell>
        <mxCell id="aCz41oA2iba9IzXfXmTm-28" value="Feedback Management System" style="ellipse;whiteSpace=wrap;html=1;" parent="1" vertex="1">
          <mxGeometry x="330" y="527" width="100" height="80" as="geometry" />
        </mxCell>
        <mxCell id="aCz41oA2iba9IzXfXmTm-29" value="feedback" style="shape=partialRectangle;whiteSpace=wrap;html=1;left=0;right=0;fillColor=none;" parent="1" vertex="1">
          <mxGeometry x="580" y="547" width="80" height="40" as="geometry" />
        </mxCell>
        <mxCell id="aCz41oA2iba9IzXfXmTm-30" value="gives feedback" style="endArrow=classic;html=1;rounded=0;edgeStyle=orthogonalEdgeStyle;exitX=1;exitY=0.5;exitDx=0;exitDy=0;entryX=0;entryY=0.5;entryDx=0;entryDy=0;" parent="1" source="aCz41oA2iba9IzXfXmTm-2" target="aCz41oA2iba9IzXfXmTm-28" edge="1">
          <mxGeometry relative="1" as="geometry">
            <mxPoint x="340" y="477" as="sourcePoint" />
            <mxPoint x="440" y="477" as="targetPoint" />
          </mxGeometry>
        </mxCell>
        <mxCell id="aCz41oA2iba9IzXfXmTm-33" value="feedback data" style="endArrow=classic;html=1;rounded=0;edgeStyle=orthogonalEdgeStyle;exitX=1;exitY=0.5;exitDx=0;exitDy=0;entryX=0;entryY=0.5;entryDx=0;entryDy=0;" parent="1" source="aCz41oA2iba9IzXfXmTm-28" target="aCz41oA2iba9IzXfXmTm-29" edge="1">
          <mxGeometry relative="1" as="geometry">
            <mxPoint x="450" y="566.26" as="sourcePoint" />
            <mxPoint x="550" y="566.26" as="targetPoint" />
          </mxGeometry>
        </mxCell>
        <mxCell id="aCz41oA2iba9IzXfXmTm-35" value="Notice Board System" style="ellipse;whiteSpace=wrap;html=1;" parent="1" vertex="1">
          <mxGeometry x="290" y="60" width="100" height="80" as="geometry" />
        </mxCell>
        <mxCell id="aCz41oA2iba9IzXfXmTm-36" value="notice" style="shape=partialRectangle;whiteSpace=wrap;html=1;left=0;right=0;fillColor=none;" parent="1" vertex="1">
          <mxGeometry x="540" y="80" width="80" height="40" as="geometry" />
        </mxCell>
        <mxCell id="aCz41oA2iba9IzXfXmTm-37" value="" style="endArrow=classic;html=1;rounded=0;edgeStyle=orthogonalEdgeStyle;exitX=1;exitY=0.5;exitDx=0;exitDy=0;entryX=0;entryY=0.5;entryDx=0;entryDy=0;" parent="1" target="aCz41oA2iba9IzXfXmTm-36" edge="1">
          <mxGeometry relative="1" as="geometry">
            <mxPoint x="390" y="99.98" as="sourcePoint" />
            <mxPoint x="630" y="100" as="targetPoint" />
          </mxGeometry>
        </mxCell>
        <mxCell id="aCz41oA2iba9IzXfXmTm-38" value="notice data" style="edgeLabel;resizable=0;html=1;align=center;verticalAlign=middle;" parent="aCz41oA2iba9IzXfXmTm-37" connectable="0" vertex="1">
          <mxGeometry relative="1" as="geometry">
            <mxPoint y="-2" as="offset" />
          </mxGeometry>
        </mxCell>
        <mxCell id="aCz41oA2iba9IzXfXmTm-50" value="" style="endArrow=classic;html=1;rounded=0;edgeStyle=orthogonalEdgeStyle;exitX=0.5;exitY=0;exitDx=0;exitDy=0;entryX=0;entryY=0.375;entryDx=0;entryDy=0;entryPerimeter=0;" parent="1" source="aCz41oA2iba9IzXfXmTm-3" target="aCz41oA2iba9IzXfXmTm-35" edge="1">
          <mxGeometry relative="1" as="geometry">
            <mxPoint x="410" y="210" as="sourcePoint" />
            <mxPoint x="510" y="210" as="targetPoint" />
          </mxGeometry>
        </mxCell>
        <mxCell id="aCz41oA2iba9IzXfXmTm-51" value="create notice" style="edgeLabel;resizable=0;html=1;align=center;verticalAlign=middle;" parent="aCz41oA2iba9IzXfXmTm-50" connectable="0" vertex="1">
          <mxGeometry relative="1" as="geometry" />
        </mxCell>
        <mxCell id="aCz41oA2iba9IzXfXmTm-52" value="" style="endArrow=classic;html=1;rounded=0;edgeStyle=orthogonalEdgeStyle;exitX=0.5;exitY=1;exitDx=0;exitDy=0;entryX=0.5;entryY=0;entryDx=0;entryDy=0;" parent="1" source="aCz41oA2iba9IzXfXmTm-15" target="aCz41oA2iba9IzXfXmTm-22" edge="1">
          <mxGeometry relative="1" as="geometry">
            <mxPoint x="410" y="335" as="sourcePoint" />
            <mxPoint x="510" y="335" as="targetPoint" />
          </mxGeometry>
        </mxCell>
        <mxCell id="aCz41oA2iba9IzXfXmTm-53" value="select event&amp;nbsp;" style="edgeLabel;resizable=0;html=1;align=center;verticalAlign=middle;" parent="aCz41oA2iba9IzXfXmTm-52" connectable="0" vertex="1">
          <mxGeometry relative="1" as="geometry">
            <mxPoint y="-3" as="offset" />
          </mxGeometry>
        </mxCell>
        <mxCell id="aCz41oA2iba9IzXfXmTm-54" value="" style="endArrow=classic;html=1;rounded=0;edgeStyle=orthogonalEdgeStyle;exitX=0;exitY=0.5;exitDx=0;exitDy=0;entryX=1;entryY=0.5;entryDx=0;entryDy=0;" parent="1" source="aCz41oA2iba9IzXfXmTm-22" target="aCz41oA2iba9IzXfXmTm-23" edge="1">
          <mxGeometry relative="1" as="geometry">
            <mxPoint x="410" y="322" as="sourcePoint" />
            <mxPoint x="510" y="322" as="targetPoint" />
          </mxGeometry>
        </mxCell>
        <mxCell id="aCz41oA2iba9IzXfXmTm-55" value="event&lt;br&gt;data" style="edgeLabel;resizable=0;html=1;align=center;verticalAlign=middle;" parent="aCz41oA2iba9IzXfXmTm-54" connectable="0" vertex="1">
          <mxGeometry relative="1" as="geometry" />
        </mxCell>
        <mxCell id="k4iTr9kB6WlirWtKaSQQ-7" value="Course Management System" style="ellipse;whiteSpace=wrap;html=1;" vertex="1" parent="1">
          <mxGeometry x="300" y="421" width="100" height="80" as="geometry" />
        </mxCell>
        <mxCell id="k4iTr9kB6WlirWtKaSQQ-8" value="course" style="shape=partialRectangle;whiteSpace=wrap;html=1;left=0;right=0;fillColor=none;" vertex="1" parent="1">
          <mxGeometry x="550" y="441" width="80" height="40" as="geometry" />
        </mxCell>
        <mxCell id="k4iTr9kB6WlirWtKaSQQ-9" value="" style="endArrow=classic;html=1;rounded=0;edgeStyle=orthogonalEdgeStyle;exitX=1;exitY=0.5;exitDx=0;exitDy=0;entryX=0;entryY=0.5;entryDx=0;entryDy=0;" edge="1" parent="1">
          <mxGeometry relative="1" as="geometry">
            <mxPoint x="401" y="461.98" as="sourcePoint" />
            <mxPoint x="551" y="462" as="targetPoint" />
          </mxGeometry>
        </mxCell>
        <mxCell id="k4iTr9kB6WlirWtKaSQQ-10" value="course data" style="edgeLabel;resizable=0;html=1;align=center;verticalAlign=middle;" connectable="0" vertex="1" parent="k4iTr9kB6WlirWtKaSQQ-9">
          <mxGeometry relative="1" as="geometry">
            <mxPoint y="-1" as="offset" />
          </mxGeometry>
        </mxCell>
        <mxCell id="k4iTr9kB6WlirWtKaSQQ-12" value="" style="endArrow=classic;html=1;rounded=0;exitX=0.5;exitY=1;exitDx=0;exitDy=0;" edge="1" parent="1" source="aCz41oA2iba9IzXfXmTm-3">
          <mxGeometry width="50" height="50" relative="1" as="geometry">
            <mxPoint x="240" y="384.0000000000001" as="sourcePoint" />
            <mxPoint x="300" y="464" as="targetPoint" />
            <Array as="points">
              <mxPoint x="240" y="464" />
            </Array>
          </mxGeometry>
        </mxCell>
        <mxCell id="k4iTr9kB6WlirWtKaSQQ-13" value="add course material" style="edgeLabel;html=1;align=center;verticalAlign=middle;resizable=0;points=[];" vertex="1" connectable="0" parent="k4iTr9kB6WlirWtKaSQQ-12">
          <mxGeometry x="-0.5286" y="1" relative="1" as="geometry">
            <mxPoint as="offset" />
          </mxGeometry>
        </mxCell>
        <mxCell id="k4iTr9kB6WlirWtKaSQQ-14" value="Faculty" style="rounded=0;whiteSpace=wrap;html=1;" vertex="1" parent="1">
          <mxGeometry x="20" y="350" width="120" height="40" as="geometry" />
        </mxCell>
        <mxCell id="k4iTr9kB6WlirWtKaSQQ-15" value="" style="endArrow=classic;html=1;rounded=0;exitX=0.5;exitY=0;exitDx=0;exitDy=0;entryX=0.103;entryY=0.759;entryDx=0;entryDy=0;entryPerimeter=0;" edge="1" parent="1">
          <mxGeometry width="50" height="50" relative="1" as="geometry">
            <mxPoint x="74" y="350" as="sourcePoint" />
            <mxPoint x="194.30000000000018" y="280.72" as="targetPoint" />
            <Array as="points">
              <mxPoint x="74" y="283" />
            </Array>
          </mxGeometry>
        </mxCell>
        <mxCell id="k4iTr9kB6WlirWtKaSQQ-16" value="validate" style="edgeLabel;html=1;align=center;verticalAlign=middle;resizable=0;points=[];" vertex="1" connectable="0" parent="k4iTr9kB6WlirWtKaSQQ-15">
          <mxGeometry x="0.0114" y="-4" relative="1" as="geometry">
            <mxPoint x="6" y="-4" as="offset" />
          </mxGeometry>
        </mxCell>
        <mxCell id="k4iTr9kB6WlirWtKaSQQ-17" value="Faculty Management System" style="ellipse;whiteSpace=wrap;html=1;" vertex="1" parent="1">
          <mxGeometry x="402" y="132" width="100" height="80" as="geometry" />
        </mxCell>
        <mxCell id="k4iTr9kB6WlirWtKaSQQ-18" value="faculty" style="shape=partialRectangle;whiteSpace=wrap;html=1;left=0;right=0;fillColor=none;" vertex="1" parent="1">
          <mxGeometry x="652" y="152" width="80" height="40" as="geometry" />
        </mxCell>
        <mxCell id="k4iTr9kB6WlirWtKaSQQ-19" value="" style="endArrow=classic;html=1;rounded=0;edgeStyle=orthogonalEdgeStyle;exitX=1;exitY=0.5;exitDx=0;exitDy=0;entryX=0;entryY=0.5;entryDx=0;entryDy=0;" edge="1" parent="1">
          <mxGeometry relative="1" as="geometry">
            <mxPoint x="503" y="172.98000000000002" as="sourcePoint" />
            <mxPoint x="653" y="173" as="targetPoint" />
          </mxGeometry>
        </mxCell>
        <mxCell id="k4iTr9kB6WlirWtKaSQQ-20" value="faculty data" style="edgeLabel;resizable=0;html=1;align=center;verticalAlign=middle;" connectable="0" vertex="1" parent="k4iTr9kB6WlirWtKaSQQ-19">
          <mxGeometry relative="1" as="geometry">
            <mxPoint y="-1" as="offset" />
          </mxGeometry>
        </mxCell>
        <mxCell id="k4iTr9kB6WlirWtKaSQQ-21" value="" style="endArrow=classic;html=1;rounded=0;exitX=1;exitY=0;exitDx=0;exitDy=0;" edge="1" parent="1" source="aCz41oA2iba9IzXfXmTm-3">
          <mxGeometry width="50" height="50" relative="1" as="geometry">
            <mxPoint x="342" y="95.00000000000011" as="sourcePoint" />
            <mxPoint x="400" y="170" as="targetPoint" />
            <Array as="points">
              <mxPoint x="275" y="170" />
            </Array>
          </mxGeometry>
        </mxCell>
        <mxCell id="k4iTr9kB6WlirWtKaSQQ-22" value="create faculty&amp;nbsp;&lt;div&gt;profile&lt;/div&gt;" style="edgeLabel;html=1;align=center;verticalAlign=middle;resizable=0;points=[];" vertex="1" connectable="0" parent="k4iTr9kB6WlirWtKaSQQ-21">
          <mxGeometry x="-0.5286" y="1" relative="1" as="geometry">
            <mxPoint x="17" y="4" as="offset" />
          </mxGeometry>
        </mxCell>
        <mxCell id="k4iTr9kB6WlirWtKaSQQ-24" value="" style="endArrow=classic;html=1;rounded=0;exitX=1.008;exitY=0.587;exitDx=0;exitDy=0;exitPerimeter=0;entryX=0;entryY=0.5;entryDx=0;entryDy=0;" edge="1" parent="1" source="aCz41oA2iba9IzXfXmTm-3" target="aCz41oA2iba9IzXfXmTm-17">
          <mxGeometry width="50" height="50" relative="1" as="geometry">
            <mxPoint x="330" y="330" as="sourcePoint" />
            <mxPoint x="380" y="280" as="targetPoint" />
          </mxGeometry>
        </mxCell>
        <mxCell id="k4iTr9kB6WlirWtKaSQQ-25" value="add images" style="edgeLabel;html=1;align=center;verticalAlign=middle;resizable=0;points=[];" vertex="1" connectable="0" parent="k4iTr9kB6WlirWtKaSQQ-24">
          <mxGeometry x="0.0219" y="-2" relative="1" as="geometry">
            <mxPoint x="-2" y="-3" as="offset" />
          </mxGeometry>
        </mxCell>
        <mxCell id="k4iTr9kB6WlirWtKaSQQ-26" value="1.0" style="text;html=1;align=center;verticalAlign=middle;resizable=0;points=[];autosize=1;strokeColor=none;fillColor=none;" vertex="1" parent="1">
          <mxGeometry x="200" y="198" width="40" height="30" as="geometry" />
        </mxCell>
        <mxCell id="k4iTr9kB6WlirWtKaSQQ-27" value="1.1" style="text;html=1;align=center;verticalAlign=middle;resizable=0;points=[];autosize=1;strokeColor=none;fillColor=none;" vertex="1" parent="1">
          <mxGeometry x="300" y="38" width="40" height="30" as="geometry" />
        </mxCell>
        <mxCell id="k4iTr9kB6WlirWtKaSQQ-28" value="1.2" style="text;html=1;align=center;verticalAlign=middle;resizable=0;points=[];autosize=1;strokeColor=none;fillColor=none;" vertex="1" parent="1">
          <mxGeometry x="377" y="135" width="40" height="30" as="geometry" />
        </mxCell>
        <mxCell id="k4iTr9kB6WlirWtKaSQQ-29" value="1.3" style="text;html=1;align=center;verticalAlign=middle;resizable=0;points=[];autosize=1;strokeColor=none;fillColor=none;" vertex="1" parent="1">
          <mxGeometry x="373" y="231" width="40" height="30" as="geometry" />
        </mxCell>
        <mxCell id="k4iTr9kB6WlirWtKaSQQ-30" value="1.5" style="text;html=1;align=center;verticalAlign=middle;resizable=0;points=[];autosize=1;strokeColor=none;fillColor=none;" vertex="1" parent="1">
          <mxGeometry x="280" y="418" width="40" height="30" as="geometry" />
        </mxCell>
        <mxCell id="k4iTr9kB6WlirWtKaSQQ-31" value="1.4" style="text;html=1;align=center;verticalAlign=middle;resizable=0;points=[];autosize=1;strokeColor=none;fillColor=none;" vertex="1" parent="1">
          <mxGeometry x="694" y="318" width="40" height="30" as="geometry" />
        </mxCell>
        <mxCell id="k4iTr9kB6WlirWtKaSQQ-32" value="2.0" style="text;html=1;align=center;verticalAlign=middle;resizable=0;points=[];autosize=1;strokeColor=none;fillColor=none;" vertex="1" parent="1">
          <mxGeometry x="300" y="532" width="40" height="30" as="geometry" />
        </mxCell>
      </root>
    </mxGraphModel>
  </diagram>
</mxfile>
